<svg xmlns="http://www.w3.org/2000/svg" xmlns:xlink="http://www.w3.org/1999/xlink" id="Laag_1" x="0px" y="0px" viewBox="0 0 494.7 130" style="enable-background:new 0 0 494.7 130;" xml:space="preserve"> <style type="text/css"> .st0{fill:#FFFFFF;} .st1{fill:#010202;} </style> <circle id="XMLID_1_" class="st0" cx="65" cy="65" r="64.5"></circle> <g id="XMLID_3_"> <path id="XMLID_40_" class="st1" d="M43,79.9c-9.1,0-14.3-9.1-14.3-22.8c0-14.6,9.3-32.5,23.9-32.5c5.3,0,9.3,3.5,9.3,9.1 c0,8-8.9,14.8-15.3,14.8c-1.8,0-3.2-1.1-3.2-3.5c0-1,0.3-2.6,0.8-2.6S45,43,47.1,43c3.7,0,9.1-4.3,9.1-9c0-1.7-1.1-4.1-4.5-4.1 c-9.2,0-16.9,14.3-16.9,27.1c0,10.6,3.6,17.2,8.3,17.2c7.5,0,11.3-10.1,11.3-16.2c0-0.7-0.1-1.9-0.1-2.4c0-1.4,1.1-1.5,2.4-1.5 c1.3,0,3.8,1.2,3.8,2.8c-0.4,4-0.4,7.4-0.4,11.1c0,3.5,0.1,7.1,0.1,11.5c1.4-0.2,2.7-0.3,3.9-0.4c3.5-0.2,1.6,5.7-1,5.8 C61.9,85,61,85,60,85.1c-0.4,8.2-2.1,17.8-10.7,17.8c-5,0-8.2-3.7-8.2-8.7c0-7.5,6.7-11.5,13.5-13.5V80c0-3.2-0.1-5.6-0.1-7.3 C51.3,77.2,47.5,79.9,43,79.9z M54.3,86.2c-4.8,1.5-7.6,4.3-7.6,7.9c0,2.2,1.2,3.2,2.6,3.2C52.7,97.3,53.9,92.1,54.3,86.2z"></path> <path id="XMLID_43_" class="st1" d="M79.9,79.9c-9.1,0-14.3-9.1-14.3-22.8c0-14.6,9.3-32.5,23.9-32.5c5.3,0,9.3,3.5,9.3,9.1 c0,8-8.9,14.8-15.3,14.8c-1.8,0-3.2-1.1-3.2-3.5c0-1,0.3-2.6,0.8-2.6s0.7,0.7,2.8,0.7c3.7,0,9.1-4.3,9.1-9c0-1.7-1.1-4.1-4.5-4.1 c-9.2,0-16.9,14.3-16.9,27.1c0,10.6,3.6,17.2,8.3,17.2c7.5,0,11.3-10.1,11.3-16.2c0-0.7-0.1-1.9-0.1-2.4c0-1.4,1.1-1.5,2.4-1.5 c1.3,0,3.8,1.2,3.8,2.8c-0.4,4-0.4,7.4-0.4,11.1c0,3.5,0.1,7.1,0.1,11.5c1.4-0.2,2.7-0.3,3.9-0.4c3.5-0.2,1.6,5.7-1,5.8 c-1.1,0-2.1,0.1-3.1,0.1c-0.4,8.2-2.1,17.8-10.7,17.8c-5,0-8.2-3.7-8.2-8.7c0-7.5,6.7-11.5,13.5-13.5V80c0-3.2-0.1-5.6-0.1-7.3 C88.2,77.2,84.4,79.9,79.9,79.9z M91.3,86.2c-4.8,1.5-7.6,4.3-7.6,7.9c0,2.2,1.2,3.2,2.6,3.2C89.6,97.3,90.9,92.1,91.3,86.2z"></path> </g> <g id="XMLID_17_"> <path id="XMLID_18_" class="st0" d="M178.2,84.5c0,0.3,0,0.7-0.1,1.1c-0.1,0.4-0.2,0.8-0.5,1.1s-0.6,0.7-1.1,0.9 c-0.5,0.3-1.1,0.4-1.9,0.4c-0.9,0-1.6-0.1-2.1-0.4c-0.5-0.2-0.9-0.6-1.2-0.9c-0.3-0.4-0.4-0.7-0.5-1.1c-0.1-0.4-0.1-0.8-0.1-1.1 v-2.1c-1.1,1.7-2.6,3-4.3,4.1c-1.7,1-3.9,1.6-6.5,1.6c-0.4,0-1.1,0-2.1-0.1c-0.9-0.1-2-0.3-3.2-0.6c-1.2-0.3-2.4-0.8-3.6-1.4 c-1.2-0.6-2.4-1.5-3.4-2.5s-1.9-2.4-2.5-4.1c-0.7-1.6-1-3.6-1-6V53.7c0-1.9,0.2-3.6,0.7-5.1c0.5-1.5,1.1-2.8,1.8-3.8 c0.8-1.1,1.6-2,2.6-2.7s2-1.4,3-1.8c2.4-1.1,5.1-1.8,8.2-1.9c2.6,0,4.8,0.3,6.7,0.9c1.9,0.6,3.4,1.3,4.7,2.3c1.3,0.9,2.3,2,3.1,3.2 c0.8,1.2,1.4,2.4,1.8,3.6c0.4,1.2,0.7,2.4,0.8,3.5c0.1,1.1,0.2,2.1,0.2,2.9c0,0.4,0,0.8-0.1,1.3c-0.1,0.5-0.3,1-0.6,1.4 s-0.9,0.8-1.7,1.2c-0.8,0.3-1.8,0.5-3.3,0.5c-0.5,0-1.1,0-1.8-0.1c-0.7-0.1-1.4-0.2-2.1-0.4c-0.7-0.2-1.2-0.6-1.7-1 c-0.5-0.5-0.7-1.1-0.7-1.9c0-1.3-0.1-2.4-0.2-3.4c-0.2-1-0.4-1.8-0.8-2.5c-0.4-0.7-0.9-1.2-1.7-1.6c-0.7-0.4-1.6-0.5-2.7-0.5 c-1.1,0-2,0.2-2.7,0.7c-0.6,0.5-1.1,1-1.4,1.5c-0.3,0.7-0.5,1.4-0.6,2.3v22.5c0,0.8,0.1,1.5,0.4,2.1c0.3,0.7,0.7,1.2,1.1,1.7 s1.1,0.9,1.7,1.2s1.4,0.4,2.2,0.4c0.9,0,1.8-0.2,2.5-0.6c0.8-0.4,1.4-1,2.1-1.7c0.6-0.7,1.2-1.5,1.6-2.4c0.5-0.9,0.9-1.8,1.3-2.8 h-3.4c-0.7-0.1-1.3-0.2-1.8-0.5c-0.5-0.2-0.9-0.6-1.2-1.1c-0.4-0.5-0.5-1.1-0.5-1.9c0-0.9,0.2-1.6,0.5-2.1c0.4-0.5,0.8-0.8,1.2-1.1 c0.5-0.3,1.1-0.4,1.8-0.5h9.1c0.2,0,0.4,0,0.8,0.1c0.4,0.1,0.7,0.2,1.1,0.5s0.7,0.7,1,1.2c0.3,0.6,0.4,1.3,0.4,2.3V84.5z"></path> <path id="XMLID_20_" class="st0" d="M213.2,79.7c0,1,0,2-0.1,2.9s-0.3,1.8-0.6,2.5s-0.9,1.4-1.6,1.8s-1.7,0.7-3,0.7 c-1.3,0-2.3-0.2-3-0.7c-0.7-0.4-1.3-1-1.6-1.6s-0.6-1.3-0.7-2c-0.1-0.7-0.1-1.3-0.1-1.7c-0.2,0.7-0.5,1.4-0.9,2.1s-0.9,1.3-1.5,1.9 c-0.6,0.6-1.3,1-2.2,1.4c-0.9,0.4-1.9,0.5-3,0.5c-1.3,0-2.6-0.2-3.9-0.6c-1.3-0.4-2.4-1.1-3.5-2.1c-1-1-1.9-2.3-2.5-3.8 c-0.6-1.6-1-3.5-1-5.9V65c0-2.3,0.3-4.3,1-5.9c0.6-1.6,1.5-2.9,2.5-3.8c1-1,2.2-1.7,3.5-2.1c1.3-0.4,2.6-0.6,3.9-0.6 c1.1,0,2.1,0.2,3,0.5c0.9,0.4,1.6,0.8,2.2,1.4c0.6,0.6,1.1,1.2,1.5,1.9s0.7,1.4,0.9,2.1c0-1.2,0.2-2.1,0.5-2.9 c0.3-0.8,0.8-1.4,1.3-1.8c0.5-0.5,1.1-0.8,1.7-0.9c0.6-0.2,1.3-0.3,1.9-0.3c1.2,0,2.1,0.2,2.8,0.7s1.2,1.1,1.6,1.8 c0.4,0.7,0.6,1.6,0.7,2.6c0.1,1,0.2,2,0.2,3V79.7z M194.9,74.3c0,0.6,0,1.3,0.1,1.9c0,0.6,0.2,1.2,0.4,1.7s0.5,0.9,0.9,1.2 c0.4,0.3,1,0.4,1.7,0.4c0.9,0,1.7-0.2,2.2-0.6c0.6-0.4,1-1,1.4-1.9c0.3-0.9,0.6-1.9,0.7-3.2c0.1-1.3,0.2-2.9,0.2-4.7 c0-0.7-0.1-1.6-0.2-2.5c-0.1-0.9-0.4-1.8-0.7-2.7c-0.3-0.8-0.8-1.6-1.4-2.1c-0.6-0.6-1.3-0.9-2.3-0.9c-0.7,0-1.3,0.1-1.7,0.4 c-0.4,0.3-0.7,0.7-0.9,1.1s-0.3,1-0.4,1.6c0,0.6-0.1,1.2-0.1,1.8V74.3z"></path> <path id="XMLID_23_" class="st0" d="M249,79.7c0,1,0,2-0.1,2.9s-0.3,1.8-0.6,2.5s-0.9,1.4-1.6,1.8s-1.7,0.7-3,0.7 c-1.3,0-2.3-0.2-3-0.7c-0.7-0.4-1.3-1-1.6-1.6s-0.6-1.3-0.7-2c-0.1-0.7-0.1-1.3-0.1-1.7c-0.2,0.7-0.5,1.4-0.9,2.1s-0.9,1.3-1.5,1.9 c-0.6,0.6-1.3,1-2.2,1.4c-0.9,0.4-1.9,0.5-3,0.5c-1.3,0-2.6-0.2-3.9-0.6c-1.3-0.4-2.4-1.1-3.5-2.1c-1-1-1.9-2.3-2.5-3.8 c-0.6-1.6-1-3.5-1-5.9V65c0-2.3,0.3-4.3,1-5.9c0.6-1.6,1.5-2.9,2.5-3.8c1-1,2.2-1.7,3.5-2.1c1.3-0.4,2.6-0.6,3.9-0.6 c1.1,0,2.1,0.2,3,0.5c0.9,0.4,1.6,0.8,2.2,1.4c0.6,0.6,1.1,1.2,1.5,1.9s0.7,1.4,0.9,2.1v-12c0-1,0.1-2,0.2-3c0.1-1,0.3-1.8,0.7-2.6 c0.4-0.7,0.9-1.3,1.6-1.8c0.7-0.5,1.7-0.7,2.9-0.7c1.2,0,2.1,0.2,2.8,0.7s1.2,1.1,1.6,1.8s0.6,1.6,0.7,2.6c0.1,1,0.2,2,0.2,3V79.7z M230.7,74.3c0,0.6,0,1.3,0.1,1.9c0,0.6,0.2,1.2,0.4,1.7s0.5,0.9,0.9,1.2c0.4,0.3,1,0.4,1.7,0.4c0.9,0,1.7-0.2,2.2-0.6 c0.6-0.4,1-1,1.4-1.9c0.3-0.9,0.6-1.9,0.7-3.2c0.1-1.3,0.2-2.9,0.2-4.7c0-0.7-0.1-1.6-0.2-2.5c-0.1-0.9-0.4-1.8-0.7-2.7 c-0.3-0.8-0.8-1.6-1.4-2.1c-0.6-0.6-1.3-0.9-2.3-0.9c-0.7,0-1.3,0.1-1.7,0.4c-0.4,0.3-0.7,0.7-0.9,1.1s-0.3,1-0.4,1.6 c0,0.6-0.1,1.2-0.1,1.8V74.3z"></path> <path id="XMLID_26_" class="st0" d="M285.3,88.7c0,2.1-0.3,3.9-0.9,5.3s-1.3,2.7-2.2,3.6s-1.9,1.7-3,2.3s-2.2,0.9-3.2,1.2 s-2,0.4-2.9,0.5s-1.5,0.1-2,0.1c-1.7,0-3.3-0.1-5-0.4s-3.2-0.7-4.6-1.3s-2.5-1.5-3.4-2.6s-1.4-2.5-1.5-4.1c0-0.3,0-0.6,0.1-0.9 s0.3-0.7,0.6-1s0.8-0.6,1.5-0.8s1.5-0.3,2.7-0.3c1.4,0,2.4,0.1,3.1,0.3s1.3,0.5,1.6,0.8s0.6,0.7,0.7,1s0.2,0.7,0.3,1 c0.2,0.5,0.6,0.8,1.1,1s1.3,0.3,2.3,0.3c0.9,0,1.6-0.2,2.1-0.6s0.9-0.9,1.1-1.4s0.4-1.1,0.5-1.7s0.1-1,0.1-1.4v-7.9 c-0.2,0.7-0.5,1.4-0.9,2.1s-0.9,1.3-1.5,1.9s-1.3,1-2.2,1.4s-1.9,0.5-3,0.5c-1.3,0-2.6-0.2-3.9-0.6s-2.5-1.1-3.5-2.1 s-1.9-2.3-2.5-3.8s-1-3.6-1-5.9V65c0-2.3,0.3-4.3,1-5.9s1.5-2.9,2.5-3.8s2.2-1.7,3.5-2.1s2.6-0.6,3.9-0.6c1.1,0,2.2,0.2,3,0.5 c0.9,0.4,1.6,0.8,2.2,1.4s1.1,1.2,1.5,1.9s0.7,1.4,0.9,2.1c0-0.5,0-1,0.1-1.7c0.1-0.7,0.3-1.3,0.7-2c0.4-0.6,0.9-1.1,1.6-1.6 c0.7-0.4,1.7-0.7,3-0.7c1.3,0,2.3,0.2,3,0.7s1.2,1.1,1.6,1.8c0.4,0.8,0.6,1.6,0.6,2.5s0.1,1.9,0.1,2.9V88.7z M267,74.4 c0,0.6,0,1.2,0.1,1.8s0.2,1.2,0.4,1.6s0.5,0.9,0.9,1.2s1,0.4,1.7,0.4c0.9,0,1.7-0.3,2.3-0.9s1-1.3,1.4-2.2s0.6-1.8,0.7-2.7 s0.2-1.8,0.2-2.5c0-1.8-0.1-3.3-0.2-4.6s-0.4-2.4-0.7-3.3s-0.8-1.5-1.4-1.9s-1.3-0.6-2.2-0.6c-0.7,0-1.3,0.1-1.7,0.4 s-0.7,0.7-0.9,1.2s-0.3,1-0.4,1.7s-0.1,1.2-0.1,1.9V74.4z"></path> <path id="XMLID_29_" class="st0" d="M322.4,67.6c0,0.4,0,0.8-0.1,1.3s-0.2,1-0.5,1.4s-0.8,0.8-1.5,1.2s-1.6,0.5-2.9,0.5h-14v3.4 c0,0.6,0.1,1.1,0.2,1.8s0.4,1.2,0.7,1.7s0.8,0.9,1.4,1.3s1.3,0.5,2.1,0.5c0.9,0,1.7-0.1,2.2-0.3s0.9-0.5,1.2-0.8s0.6-0.7,0.8-1.1 s0.5-0.7,0.9-1.1s0.9-0.6,1.6-0.8s1.6-0.3,2.9-0.3c0.6,0,1.2,0,1.7,0.1s1,0.3,1.5,0.5s0.8,0.6,1,1.1s0.4,1,0.4,1.8 c0,1.5-0.5,2.8-1.4,3.8s-2.2,1.8-3.6,2.4s-3,1-4.7,1.3s-3.3,0.4-4.8,0.4c-1.9,0-3.8-0.3-5.6-0.7s-3.3-1.2-4.7-2.3s-2.4-2.4-3.2-4 s-1.2-3.7-1.2-6.1v-8.2c0-2.2,0.3-4.1,0.8-5.7s1.2-2.8,2.1-3.9c0.8-1,1.8-1.8,2.8-2.4c1.1-0.6,2.1-1,3.2-1.3s2.1-0.5,3.1-0.5 s1.8-0.1,2.5-0.1c2.4,0,4.4,0.2,6.1,0.6s3.1,1,4.2,1.7c1.1,0.7,2,1.5,2.7,2.4c0.7,0.9,1.1,1.8,1.5,2.8s0.5,1.9,0.6,2.9 s0.1,1.9,0.1,2.7V67.6z M303.4,66.8h8.8c0-1.1,0-2.1-0.1-2.9s-0.2-1.6-0.5-2.2s-0.8-1-1.4-1.3s-1.5-0.5-2.7-0.5 c-1,0-1.7,0.2-2.3,0.5s-1,0.7-1.2,1.1s-0.5,0.9-0.5,1.5s-0.1,1-0.1,1.4V66.8z"></path> <path id="XMLID_32_" class="st0" d="M334.4,52.5v-6.2c0-1,0.1-1.9,0.2-2.9c0.1-0.9,0.3-1.8,0.7-2.5s0.9-1.3,1.6-1.8 s1.7-0.7,2.8-0.7c1.2,0,2.1,0.2,2.8,0.7s1.2,1.1,1.6,1.8s0.6,1.6,0.7,2.5c0.1,0.9,0.2,1.9,0.2,2.9v6.2h2.9c0.6,0,1.2,0,1.8,0.1 c0.6,0.1,1.2,0.2,1.6,0.5s0.9,0.7,1.2,1.3s0.4,1.3,0.4,2.4c0,1-0.1,1.7-0.4,2.3s-0.7,1-1.2,1.3s-1,0.5-1.6,0.5s-1.2,0.1-1.8,0.1 H345v12.3c0,0.5,0,1,0.1,1.5s0.2,1,0.4,1.5s0.5,0.8,0.9,1.1s1,0.4,1.8,0.4c0.8,0,1.6,0.1,2.2,0.2s1.1,0.4,1.5,0.7s0.7,0.8,0.9,1.4 s0.3,1.3,0.3,2.3c0,0.9-0.2,1.7-0.7,2.4s-1,1.2-1.7,1.7s-1.6,0.8-2.5,1s-2,0.3-3,0.3c-1.7,0-3.1-0.2-4.3-0.5s-2.2-0.8-3-1.5 s-1.4-1.4-1.9-2.3s-0.8-1.9-1-3s-0.4-2.3-0.4-3.6s-0.1-2.7-0.1-4.1V61h-2c-0.6,0-1.2,0-1.8-0.1s-1.1-0.3-1.6-0.5s-0.8-0.7-1.1-1.3 s-0.4-1.3-0.4-2.3c0-1,0.1-1.8,0.4-2.4s0.7-1,1.1-1.3s1-0.5,1.6-0.5c0.6-0.1,1.2-0.1,1.8-0.1H334.4z"></path> <path id="XMLID_34_" class="st0" d="M421.7,84.5c0,0.3,0,0.7-0.1,1.1s-0.2,0.8-0.5,1.1s-0.6,0.7-1.1,0.9S419,88,418.2,88 c-0.9,0-1.6-0.1-2.1-0.4s-0.9-0.6-1.2-0.9s-0.4-0.7-0.5-1.1s-0.1-0.8-0.1-1.1v-2.1c-1.1,1.7-2.6,3-4.3,4.1S406,88,403.5,88 c-0.4,0-1.1,0-2.1-0.1s-2-0.3-3.2-0.6s-2.4-0.8-3.6-1.4s-2.4-1.5-3.4-2.5s-1.9-2.4-2.5-4.1s-1-3.6-1-6V53.7c0-1.9,0.2-3.6,0.7-5.1 s1.1-2.8,1.8-3.8s1.6-2,2.6-2.7s2-1.4,3-1.8c2.4-1.1,5.1-1.8,8.2-1.9c2.6,0,4.8,0.3,6.7,0.9c1.9,0.6,3.4,1.3,4.7,2.3 c1.3,0.9,2.3,2,3.1,3.2c0.8,1.2,1.4,2.4,1.8,3.6c0.4,1.2,0.7,2.4,0.8,3.5s0.2,2.1,0.2,2.9c0,0.4,0,0.8-0.1,1.3 c-0.1,0.5-0.3,1-0.6,1.4s-0.9,0.8-1.7,1.2s-1.8,0.5-3.3,0.5c-0.5,0-1.1,0-1.8-0.1s-1.4-0.2-2.1-0.4c-0.7-0.2-1.2-0.6-1.7-1 s-0.7-1.1-0.7-1.9c0-1.3-0.1-2.4-0.2-3.4c-0.2-1-0.4-1.8-0.8-2.5s-0.9-1.2-1.7-1.6c-0.7-0.4-1.6-0.5-2.7-0.5c-1.1,0-2,0.2-2.7,0.7 c-0.6,0.5-1.1,1-1.4,1.5c-0.3,0.7-0.5,1.4-0.6,2.3v22.5c0,0.8,0.1,1.5,0.4,2.1s0.7,1.2,1.1,1.7s1.1,0.9,1.7,1.2s1.4,0.4,2.2,0.4 c0.9,0,1.8-0.2,2.5-0.6s1.4-1,2.1-1.7s1.2-1.5,1.6-2.4s0.9-1.8,1.3-2.8h-3.4c-0.7-0.1-1.3-0.2-1.8-0.5c-0.5-0.2-0.9-0.6-1.2-1.1 s-0.5-1.1-0.5-1.9c0-0.9,0.2-1.6,0.5-2.1s0.8-0.8,1.2-1.1c0.5-0.3,1.1-0.4,1.8-0.5h9.1c0.2,0,0.4,0,0.8,0.1s0.7,0.2,1.1,0.5 s0.7,0.7,1,1.2s0.4,1.3,0.4,2.3V84.5z"></path> <path id="XMLID_36_" class="st0" d="M428.8,60.5c0-1,0.1-2,0.2-3c0.1-1,0.4-1.8,0.8-2.6c0.4-0.8,0.9-1.4,1.7-1.8s1.7-0.7,2.9-0.7 c1.2,0,2.1,0.2,2.8,0.7s1.2,1.1,1.6,1.8c0.4,0.8,0.6,1.6,0.7,2.6c0.1,1,0.2,1.9,0.2,3v13.7c0,0.7,0,1.3,0.1,2s0.2,1.2,0.4,1.7 s0.5,0.9,0.9,1.2s1,0.4,1.7,0.4c0.9,0,1.7-0.3,2.3-0.9s1.1-1.5,1.4-2.6s0.6-2.4,0.7-3.9s0.2-3.1,0.2-4.8v-6.7c0-1,0.1-2,0.2-3 c0.1-1,0.4-1.8,0.8-2.6c0.4-0.8,0.9-1.4,1.7-1.8s1.7-0.7,2.9-0.7c1.2,0,2.1,0.2,2.8,0.7s1.2,1.1,1.6,1.8c0.4,0.8,0.6,1.6,0.7,2.6 c0.1,1,0.2,1.9,0.2,3v19.2c0,1,0,2-0.1,2.9s-0.3,1.8-0.6,2.5s-0.9,1.3-1.6,1.8s-1.7,0.7-3,0.7s-2.3-0.2-3-0.7s-1.3-1-1.6-1.6 s-0.6-1.3-0.7-1.9s-0.1-1.3-0.1-1.8c-0.2,0.7-0.5,1.4-0.9,2.1s-0.9,1.3-1.5,1.9s-1.4,1-2.2,1.4s-1.9,0.5-3,0.5 c-1.3,0-2.6-0.2-3.9-0.6s-2.4-1.1-3.5-2.1s-1.9-2.3-2.5-3.9s-1-3.6-1-5.9V60.5z"></path> <path id="XMLID_38_" class="st0" d="M470.5,101.7c-2.7,0-4.6-0.4-5.7-1.1s-1.7-1.9-1.7-3.4c0-0.7,0.1-1.3,0.3-1.8s0.5-0.9,0.8-1.2 s0.8-0.5,1.2-0.7s0.9-0.2,1.5-0.2c0.4,0,0.7,0,1,0s0.6,0,0.8,0c0.4,0,0.9-0.3,1.3-0.8s0.8-1.2,1.2-2s0.8-1.7,1.2-2.6 s0.8-1.8,1.2-2.5l-0.6-1.4c-0.7-1.7-1.4-3.5-2.1-5.4s-1.5-3.8-2.2-5.7s-1.5-3.9-2.2-5.8s-1.4-3.8-2-5.6c-0.3-0.8-0.5-1.5-0.7-2.2 s-0.3-1.4-0.3-2.1c0-0.7,0.1-1.3,0.4-1.9c0.3-0.6,0.7-1.1,1.2-1.5s1.1-0.8,1.7-1s1.3-0.4,2.1-0.4c0.7,0,1.3,0.1,1.8,0.4 s1,0.7,1.5,1.2s0.8,1.1,1.1,1.7s0.6,1.3,0.8,2l4.7,14.8l4.5-14.8c0.2-0.7,0.5-1.3,0.8-2c0.3-0.7,0.7-1.2,1.2-1.7 c0.4-0.5,0.9-0.9,1.5-1.2s1.2-0.5,1.9-0.5s1.3,0.1,2,0.4c0.6,0.3,1.2,0.6,1.6,1.1s0.8,1,1.1,1.6s0.4,1.3,0.4,2 c0,0.7-0.1,1.4-0.3,2.1s-0.4,1.4-0.7,2.1L484.5,84c-0.5,1.3-1,2.6-1.6,4s-1.2,2.7-1.9,4s-1.4,2.6-2.2,3.7s-1.6,2.2-2.5,3.1 s-1.8,1.6-2.8,2.1S471.6,101.7,470.5,101.7z"></path> </g> </svg>